# xmcd CD database file
#
# Track frame offsets:
#	150
#	16827
#	32760
#	51459
#	70048
#	86108
#	107129
#	122838
#	141615
#	163008
#
# Disc length: 2471 seconds
#
# Revision: 1
# Processed by: cddbd v1.5.2PL0 Copyright (c) Steve Scherf et al.
# Submitted via: CDex 1.70beta2
#
DISCID=8e09a50a
DTITLE=なかの綾 - わるいくせ
DYEAR=2014
DGENRE=Jazz
TTITLE0=ちょっとまってください
TTITLE1=ワン･レイニ－･ナイト･イン･ト－キョ－
TTITLE2=別れても好きな人
TTITLE3=雨の暮鐘
TTITLE4=二人でお酒を
TTITLE5=メモリ－･グラス
TTITLE6=イスキーが、おすきでしょ
TTITLE7=セカンド・ラブ
TTITLE8=さよならイエスタデイ
TTITLE9=	心のこり	
EXTD=YEAR: 2014
EXTT0=
EXTT1=
EXTT2=
EXTT3=
EXTT4=
EXTT5=
EXTT6=
EXTT7=
EXTT8=
EXTT9=
PLAYORDER=
